<?xml version='1.0' encoding='utf-8'?>
<svg xmlns="http://www.w3.org/2000/svg" width="2450" height="2e3" version="1.1" viewBox="0 0 648.23 529.17"> <defs> <filter id="a" x="-.00012172" y="-.00016866" width="1.0002" height="1.0003" color-interpolation-filters="sRGB"> <feGaussianBlur stdDeviation="0.052478913"/> </filter> </defs> <rect x="-7.7559e-6" y="-8.1997e-6" width="648.23" height="529.17" fill="#4dc5ac" stop-color="#000000" style="font-variation-settings:normal"/> <circle cx="339.4" cy="262.07" r="190.64" fill="none" stop-color="#000000" stroke="#fff" stroke-dasharray="13.2292, 39.6875" stroke-linecap="round" stroke-width="6.6146"/> <circle cx="565.35" cy="378.94" r="7.548" fill="#fff" stop-color="#000000"/> <circle cx="75.915" cy="377.36" r="8.9932" fill="#fff" stop-color="#000000"/> <circle cx="238.13" cy="21.93" r="7.6269" fill="#fff" stop-color="#000000"/> <circle cx="565.35" cy="378.94" r="7.548" fill="#fff" stop-color="#000000"/> <g style="mix-blend-mode:normal"> <g transform="matrix(.97611 0 0 .97611 -377.35 20.785)" stroke-width="3.1172"> <rect x="480.72" y="115.01" width="157.45" height="85.9" rx="4.6834" ry="4.5224" fill="#b6ff33" fill-opacity=".98431" opacity=".997" stop-color="#000000" style="font-variation-settings:normal"/> <rect x="487.23" y="120.44" width="144.42" height="75.052" fill="#9cd13c" fill-opacity=".98726" opacity=".997" stop-color="#000000" style="font-variation-settings:normal"/> <path d="m508.99 125.25a18.211 17.398 0 0 1-15.279 15.424v34.581a18.211 17.398 0 0 1 15.279 15.424h100.91a18.211 17.398 0 0 1 15.279-15.424v-34.581a18.211 17.398 0 0 1-15.279-15.424z" fill="#b6ff33" fill-opacity=".98824" opacity=".997" stop-color="#000000" style="font-variation-settings:normal"/> <rect x="529.3" y="168.76" width="60.284" height="4.8158" rx="2.4079" ry="2.0654" fill="#9cd13c" fill-opacity=".98726" opacity=".997"/> <rect x="514.82" y="156.5" width="89.248" height="4.8158" rx="2.4079" ry="2.4079" fill="#9cd13c" fill-opacity=".98726" opacity=".997"/> <rect x="529.3" y="143.7" width="60.284" height="4.8158" rx="2.4079" ry="2.0654" fill="#9cd13c" fill-opacity=".98726" opacity=".997"/> <ellipse cx="559.44" cy="157.96" rx="19.851" ry="23.789" fill="#9cd23c" opacity=".997"/> <g transform="matrix(.63997 0 0 .80126 475.23 -72.825)" fill="#b6ff33" fill-opacity=".98824" filter="url(#a)" opacity=".997" style="shape-inside:url(#rect1528-3);white-space:pre" aria-label="$"> <path d="m130.58 307.57v-3.9191q-4.9609 0-7.3918-2.7285-2.3812-2.7781-2.3812-7.1934h4.4648q0 1.5875 0.44649 2.9766 0.49609 1.3891 1.6371 2.2324 1.141 0.84336 3.2246 0.84336v-11.013q-1.8852-0.4961-3.5719-1.0418t-3.0262-1.4387q-1.2898-0.89297-2.034-2.4309t-0.74414-3.9688q0-3.6215 2.3812-6.0524 2.4309-2.4308 6.9949-2.4308v-3.5719h2.2324v3.5223q2.9766 0 4.8121 1.1906t2.6789 3.1254q0.84336 1.9348 0.84336 4.1672h-4.4648q0-2.6293-0.84336-3.5719-0.79375-0.99218-3.0262-0.99218v9.6738q1.141 0.24805 2.7285 0.64493 1.6371 0.34726 3.175 1.2402 1.5875 0.89297 2.6293 2.6789 1.0418 1.7859 1.0418 4.9113 0 3.3238-1.3891 5.3082-1.3394 1.9348-3.5223 2.8277-2.1828 0.84336-4.6633 0.99219v4.0184zm2.2324-7.8879q2.6293-0.0496 3.8695-1.0914t1.2402-3.8695q0-2.3812-0.69453-3.4726-0.64492-1.0914-1.7859-1.4883-1.141-0.44648-2.6293-0.79375zm-2.2324-15.23v-9.1777q-2.3316 0-3.3734 0.69453-1.0418 0.64492-1.2898 1.7363-0.24804 1.0418-0.24804 2.3316 0 1.8355 0.5457 2.6293 0.59531 0.74414 1.6867 1.0418 1.141 0.29766 2.6789 0.74414z" fill="#b6ff33" fill-opacity=".98824"/> </g> <path d="m485.4 115.01h64.502m7.1876 0h8.7103m0 0h26.173m6.6203 0h9.5952m6.7869 0h18.511m0 0c0.32432 0 0.64074 0.0315 0.94617 0.0916m0 0c0.30542 0.0601 0.59985 0.14862 0.88019 0.26274m0 0c0.28035 0.11412 0.5466 0.25379 0.79568 0.41601m0 0c0.24908 0.16223 0.48098 0.34701 0.69261 0.55137m0 0c0.21163 0.20436 0.40299 0.42829 0.57098 0.66881m0 0c0.168 0.24051 0.31264 0.49762 0.43082 0.76833m0 0c0.11818 0.27071 0.20991 0.55502 0.27209 0.84995m0 0c0.0622 0.29493 0.0948 0.60048 0.0948 0.91366m0 0v9.607m0 0v35.599m0 4.7271v8.3827m0 4.896v13.644m0 0c0 0.31318-0.0326 0.61873-0.0948 0.91366m0 0c-0.0622 0.29493-0.15391 0.57924-0.27209 0.84995m0 0c-0.11818 0.27071-0.26282 0.52782-0.43082 0.76834m0 0c-0.16799 0.24052-0.35935 0.46445-0.57098 0.66881m0 0c-0.21163 0.20435-0.44353 0.38914-0.69261 0.55136m0 0c-0.24908 0.16223-0.51533 0.30189-0.79568 0.41601m0 0c-0.28034 0.11413-0.57477 0.2027-0.88019 0.26275m0 0c-0.30543 0.06-0.62185 0.0916-0.94617 0.0916m0 0h-18.511m0 0h-18.511m0 0h-18.511m0 0h-18.511m0 0h-18.511m0 0h-18.511m0 0h-18.511m0 0h-18.511m0 0c-0.32432 0-0.64074-0.0315-0.94617-0.0916m0 0c-0.30542-0.06-0.59985-0.14862-0.88019-0.26275m0 0c-0.28035-0.11412-0.5466-0.25378-0.79568-0.41601m0 0c-0.24908-0.16222-0.48098-0.34701-0.69261-0.55136m0 0c-0.21163-0.20436-0.40299-0.42829-0.57098-0.66881m0 0c-0.168-0.24052-0.31264-0.49763-0.43082-0.76834m0 0c-0.11818-0.27071-0.20991-0.55502-0.27209-0.84995m0 0c-0.0622-0.29493-0.0948-0.60048-0.0948-0.91366m0 0v-9.607m0 0v-9.607m0 0v-9.607m0 0v-9.607m0 0v-9.607m0 0v-9.607m0 0v-9.607m0 0v-9.607m0 0c0-0.31318 0.0326-0.61873 0.0948-0.91366m0 0c0.0622-0.29493 0.15391-0.57924 0.27209-0.84995m0 0c0.11818-0.27071 0.26282-0.52782 0.43082-0.76833m0 0c0.16799-0.24052 0.35935-0.46445 0.57098-0.66881m0 0c0.21163-0.20436 0.44353-0.38914 0.69261-0.55137m0 0c0.24908-0.16222 0.51533-0.30189 0.79568-0.41601m0 0c0.28034-0.11412 0.57477-0.20269 0.88019-0.26274m0 0c0.30543-0.06 0.62185-0.0916 0.94617-0.0916" fill="none" opacity=".997" stop-color="#000000" stroke="#000" stroke-linecap="round" stroke-width="3.1172" style="font-variation-settings:normal"/> </g> <path d="m291.18 332.92c-2.3807 0-4.297 1.7995-4.297 4.0347v23.058c0 2.2352-1.9166 4.0347-4.2973 4.0347h-13.3c-3.053 0-5.5107 2.458-5.5107 5.511v15.876c0 3.053 2.4576 5.511 5.5107 5.511h109.57c3.053 0 5.511-2.458 5.511-5.511v-15.876c0-3.0531-2.458-5.511-5.511-5.511h-13.3c-2.3807 0-4.2974-1.7995-4.2974-4.0347v-23.058c0-2.2352-1.9166-4.0347-4.2974-4.0347z" fill="#e6e6e6" opacity=".995" stop-color="#000000" style="font-variation-settings:normal"/> <path d="m361.26 360.01v-9.1949m0-13.863c0-2.2352-1.9166-4.0347-4.2974-4.0347h-65.779c-2.3807 0-4.297 1.7995-4.297 4.0347v23.058c0 2.2352-1.9166 4.0347-4.2973 4.0347h-13.3c-3.053 0-5.5107 2.458-5.5107 5.511v15.876c0 3.053 2.4576 5.511 5.5107 5.511m0 0h25.275m5.9153 0h9.1159m6.8076 0h53.987m8.4667 0c0.76326 0 1.4893-0.15362 2.1491-0.43177 0.65977-0.27813 1.2532-0.68078 1.7513-1.1788 0.99612-0.99613 1.6106-2.3739 1.6106-3.9004v-15.876c0-3.0531-2.458-5.511-5.511-5.511h-13.3c-2.3807 0-4.2974-1.7995-4.2974-4.0347" fill="none" opacity=".995" stop-color="#000000" stroke="#000" stroke-linecap="round" stroke-width="3.0427" style="font-variation-settings:normal"/> <rect x="212.18" y="177.87" width="223.78" height="174.78" rx="11.891" ry="13.024" fill="#ffba19" opacity=".995"/> <path d="m212.18 318.13v21.492c0 7.2152 5.3035 13.024 11.891 13.024h200c6.5874 0 11.891-5.8085 11.891-13.024v-21.492z" fill="#e6e6e6" opacity=".995"/> <path d="m435.96 190.89v18.591m0 9.001v14.329m0 24.55v26.485m0 0v18.591m0 0v27.066m0 10.116c0 7.2152-5.3033 13.024-11.891 13.024h-200c-6.5874 0-11.891-5.8086-11.891-13.024v-148.73c0-3.6076 1.3258-6.8635 3.475-9.2176m36.824-3.8062h171.59c6.5874 0 11.891 5.8086 11.891 13.024" fill="none" opacity=".995" stroke="#000" stroke-linecap="round" stroke-width="3.0427"/> <g transform="matrix(.79809 0 0 .79809 -398.82 355.83)"> <circle cx="738.27" cy="8.4538" r="53.015" fill="#ffba19" stop-color="#000000" style="font-variation-settings:normal"/> <g transform="matrix(.99205 0 0 1.2421 607.72 -348.89)" fill="#fff" style="shape-inside:url(#rect1528);white-space:pre" aria-label="$"> <path d="m130.58 307.57v-3.9191q-4.9609 0-7.3918-2.7285-2.3812-2.7781-2.3812-7.1934h4.4648q0 1.5875 0.44649 2.9766 0.49609 1.3891 1.6371 2.2324 1.141 0.84336 3.2246 0.84336v-11.013q-1.8852-0.4961-3.5719-1.0418t-3.0262-1.4387q-1.2898-0.89297-2.034-2.4309t-0.74414-3.9688q0-3.6215 2.3812-6.0524 2.4309-2.4308 6.9949-2.4308v-3.5719h2.2324v3.5223q2.9766 0 4.8121 1.1906t2.6789 3.1254q0.84336 1.9348 0.84336 4.1672h-4.4648q0-2.6293-0.84336-3.5719-0.79375-0.99218-3.0262-0.99218v9.6738q1.141 0.24805 2.7285 0.64493 1.6371 0.34726 3.175 1.2402 1.5875 0.89297 2.6293 2.6789 1.0418 1.7859 1.0418 4.9113 0 3.3238-1.3891 5.3082-1.3394 1.9348-3.5223 2.8277-2.1828 0.84336-4.6633 0.99219v4.0184zm2.2324-7.8879q2.6293-0.0496 3.8695-1.0914t1.2402-3.8695q0-2.3812-0.69453-3.4726-0.64492-1.0914-1.7859-1.4883-1.141-0.44648-2.6293-0.79375zm-2.2324-15.23v-9.1777q-2.3316 0-3.3734 0.69453-1.0418 0.64492-1.2898 1.7363-0.24804 1.0418-0.24804 2.3316 0 1.8355 0.5457 2.6293 0.59531 0.74414 1.6867 1.0418 1.141 0.29766 2.6789 0.74414z" fill="#fff"/> </g> <path d="m791.29 8.4538c0 1.83-0.0927 3.6383-0.27371 5.4205m0 0c-0.181 1.7822-0.45027 3.5383-0.80337 5.2639m0 0c-0.35311 1.7256-0.79005 3.4206-1.3064 5.0807m0 0c-0.51634 1.6601-1.1121 3.2852-1.7828 4.8708m0 0c-0.67068 1.5857-1.4163 3.1319-2.2324 4.6343m0 0c-0.81615 1.5024-1.7028 2.9609-2.6555 4.3711m0 0c-0.95273 1.4102-1.9715 2.7721-3.0519 4.0813m0 0c-1.0804 1.3092-2.2225 2.5656-3.4217 3.7648m0 0c-1.1992 1.1992-2.4557 2.3413-3.7648 3.4217m0 0c-1.3092 1.0804-2.6711 2.0992-4.0813 3.0519m-9.0054 4.888c-1.5857 0.67068-3.2108 1.2664-4.8708 1.7827m-5.0807 1.3064c-1.7256 0.3531-3.4817 0.62238-5.2639 0.80337m0 0c-1.7822 0.18099-3.5905 0.27371-5.4205 0.27371m0 0c-1.83 0-3.6383-0.09272-5.4205-0.27371m0 0c-1.7822-0.18099-3.5383-0.45026-5.2639-0.80337m0 0c-1.7256-0.35311-3.4206-0.79005-5.0807-1.3064m0 0c-1.6601-0.51634-3.2852-1.1121-4.8708-1.7827m0 0c-1.5857-0.67068-3.1319-1.4163-4.6343-2.2325m0 0c-1.5024-0.81614-2.9609-1.7028-4.3711-2.6555m0 0c-1.4102-0.95272-2.7721-1.9715-4.0813-3.0519m0 0c-1.3092-1.0804-2.5656-2.2225-3.7648-3.4217m0 0c-1.1992-1.1992-2.3413-2.4557-3.4217-3.7648m0 0c-1.0804-1.3092-2.0992-2.6711-3.0519-4.0813m0 0c-0.95272-1.4102-1.8394-2.8687-2.6555-4.3711m0 0c-0.81614-1.5024-1.5618-3.0486-2.2324-4.6343m0 0c-0.67068-1.5857-1.2664-3.2108-1.7828-4.8708m0 0c-0.51633-1.6601-0.95327-3.3551-1.3064-5.0807m0 0c-0.3531-1.7256-0.62237-3.4817-0.80337-5.2639m0 0c-0.18099-1.7822-0.27371-3.5905-0.27371-5.4205m0 0c0-1.83 0.0927-3.6383 0.27371-5.4205m0 0c0.181-1.7822 0.45027-3.5383 0.80337-5.2639m0 0c0.35311-1.7256 0.79005-3.4206 1.3064-5.0807m6.6707-13.876c0.95273-1.4102 1.9715-2.7721 3.0519-4.0813m0 0c1.0804-1.3092 2.2225-2.5656 3.4217-3.7648m0 0c1.1992-1.1992 2.4557-2.3413 3.7648-3.4217m0 0c1.3092-1.0804 2.6711-2.0992 4.0813-3.0519m0 0c1.4102-0.95272 2.8687-1.8394 4.3711-2.6555m0 0c1.5024-0.81614 3.0486-1.5618 4.6343-2.2325m0 0c1.5857-0.67068 3.2108-1.2664 4.8708-1.7827m0 0c1.6601-0.51633 3.3551-0.95328 5.0807-1.3064m0 0c1.7256-0.35311 3.4817-0.62238 5.2639-0.80337m0 0c1.7822-0.18099 3.5905-0.27371 5.4205-0.27371m0 0c1.83 0 3.6383 0.09272 5.4205 0.27371m0 0c1.7822 0.18099 3.5383 0.45026 5.2639 0.80337m0 0c1.7256 0.35311 3.4206 0.79005 5.0807 1.3064m0 0c1.6601 0.51633 3.2852 1.1121 4.8708 1.7827m0 0c1.5857 0.67068 3.1319 1.4163 4.6343 2.2325m0 0c1.5024 0.81614 2.9609 1.7028 4.3711 2.6555m0 0c1.4102 0.95272 2.7721 1.9715 4.0813 3.0519m3.7648 3.4217c1.1992 1.1992 2.3413 2.4557 3.4217 3.7648m5.7075 8.4524c0.81614 1.5024 1.5618 3.0486 2.2324 4.6343m0 0c0.67068 1.5857 1.2664 3.2108 1.7828 4.8708m0 0c0.51633 1.6601 0.95327 3.3551 1.3064 5.0807" fill="none" stop-color="#000000" stroke="#000" stroke-linecap="round" stroke-width="3.8125" style="font-variation-settings:normal"/> <path d="m748.63-30.218c1.3349 0.35768 2.6358 0.77874 3.9005 1.2591m0 0c1.2647 0.48038 2.493 1.02 3.6827 1.6149m0 0c1.1897 0.59485 2.3408 1.2449 3.4508 1.946m0 0c1.11 0.70111 2.179 1.4533 3.2046 2.2525m0 0c1.0256 0.79915 2.0077 1.6453 2.9441 2.5342m0 0c0.93639 0.88899 1.827 1.8208 2.6695 2.7914m0 0c0.84247 0.9706 1.6368 1.9799 2.3806 3.0239m0 0c0.74379 1.044 1.4371 2.1226 2.0774 3.2318m0 0c0.64038 1.1092 1.2279 2.2489 1.7601 3.415m0 0c0.53223 1.1661 1.0092 2.3587 1.4285 3.5736m2.1137 15.387c-0.0797 1.3277-0.22652 2.6614-0.44284 3.9968m0 0c-0.21632 1.3354-0.50213 2.6726-0.85981 4.0075m0 0c-0.35768 1.3349-0.77875 2.6358-1.2591 3.9005m0 0c-0.48037 1.2647-1.02 2.493-1.6149 3.6827m0 0c-0.59485 1.1897-1.2449 2.3408-1.946 3.4508m0 0c-0.70111 1.11-1.4533 2.179-2.2524 3.2046m0 0c-0.79915 1.0256-1.6453 2.0077-2.5342 2.9441m0 0c-0.88899 0.9364-1.8208 1.827-2.7914 2.6695m0 0c-0.9706 0.84247-1.98 1.6368-3.0239 2.3806m0 0c-1.044 0.7438-2.1226 1.4371-3.2318 2.0775m0 0c-1.1092 0.64038-2.2489 1.2279-3.415 1.7601m0 0c-1.1662 0.53224-2.3587 1.0092-3.5736 1.4285m0 0c-1.2149 0.41932-2.4521 0.78102-3.7075 1.0827m0 0c-1.2554 0.30169-2.5291 0.54336-3.8168 0.72266m0 0c-1.2878 0.1793-2.5896 0.29622-3.9015 0.3484m0 0c-1.3118 0.05217-2.6337 0.03959-3.9614-0.04011m0 0c-1.3277-0.0797-2.6614-0.22653-3.9968-0.44284m0 0c-1.3354-0.21632-2.6726-0.50213-4.0075-0.85981m0 0c-1.3349-0.35768-2.6358-0.77874-3.9005-1.2591m0 0c-1.2647-0.48038-2.493-1.02-3.6827-1.6149m0 0c-1.1897-0.59485-2.3408-1.2449-3.4508-1.946m-8.8182-7.5781c-0.84247-0.9706-1.6368-1.9799-2.3806-3.0239m0 0c-0.7438-1.044-1.4371-2.1226-2.0775-3.2318m0 0c-0.64038-1.1092-1.2279-2.2489-1.7601-3.415m0 0c-0.53223-1.1661-1.0092-2.3587-1.4285-3.5736m0 0c-0.41933-1.2149-0.78102-2.4521-1.0827-3.7075m0 0c-0.30168-1.2554-0.54336-2.5291-0.72266-3.8168m0 0c-0.1793-1.2877-0.29622-2.5896-0.34839-3.9014m0 0c-0.0522-1.3119-0.0396-2.6337 0.0401-3.9615m0 0c0.0797-1.3277 0.22652-2.6614 0.44284-3.9968m0 0c0.21632-1.3354 0.50213-2.6726 0.85981-4.0075m0 0c0.35767-1.3349 0.77875-2.6358 1.2591-3.9005m0 0c0.48037-1.2647 1.02-2.493 1.6149-3.6827m0 0c0.59484-1.1897 1.2449-2.3408 1.946-3.4508m0 0c0.70111-1.11 1.4533-2.179 2.2524-3.2046m0 0c0.79916-1.0256 1.6453-2.0078 2.5343-2.9441m0 0c0.88898-0.93639 1.8208-1.827 2.7914-2.6695m0 0c0.9706-0.84247 1.9799-1.6368 3.0239-2.3806m13.928-6.3488c1.2554-0.30169 2.5291-0.54336 3.8168-0.72266m0 0c1.2878-0.17931 2.5896-0.29622 3.9015-0.3484m0 0c1.3118-0.05217 2.6337-0.03959 3.9614 0.04011" fill="none" stop-color="#000000" stroke="#000" stroke-linecap="round" stroke-width="3.8125" style="font-variation-settings:normal"/> </g> <g transform="matrix(1.2372 0 0 1.2372 -76.915 -81.875)"> <rect x="238.36" y="215.87" width="171.52" height="102.07" rx="4.3134" ry="4.3134" fill="#fff" opacity=".995"/> <rect x="244.15" y="231.12" width="159.87" height="79.51" fill="#b7ffb2" stop-color="#000000" style="font-variation-settings:normal"/> <rect x="301.64" y="222.08" width="102.38" height="5.7006" rx="2.8503" ry="2.8503" fill="#407cff" fill-opacity=".99608" stop-color="#000000" style="font-variation-settings:normal"/> <circle cx="247" cy="224.93" r="2.8503" fill="#407cff" fill-opacity=".99608" stop-color="#000000" style="font-variation-settings:normal"/> <circle cx="255.62" cy="224.93" r="2.8503" fill="#b7ff33" stop-color="#000000" style="font-variation-settings:normal"/> <circle cx="264.23" cy="224.93" r="2.8503" fill="#ffba19" stop-color="#000000" style="font-variation-settings:normal"/> <rect x="338.13" y="239.19" width="52.575" height="32.493" rx="1.7981" ry="1.7981" fill="#ffba19" opacity=".999" stop-color="#000000" style="font-variation-settings:normal"/> <g transform="matrix(.31821 0 0 .31821 402.04 286.5)" stroke-width="6.4334"> <path d="m-113.66-120.5h55.952c4.3437 0 8.986 3.0379 7.8405 6.5245m-3.8143 11.61-1.4972 4.5572m0 0-1.7861 5.4367m-3.5253 10.731c-0.82917 2.5239-2.5313 4.723-5.6756 4.723h-44.347c-3.1443 0-5.0729-2.155-5.6756-4.723l-2.6557-11.315m0 0-3.6456-15.533m-2.948-12.561-1.3735-5.8522c-0.83261-3.5475-3.4969-6.5245-7.8406-6.5245h-10.927" fill="none" stop-color="#000000" stroke="#fefeff" stroke-linecap="round" stroke-width="6.4334" style="font-variation-settings:normal"/> <circle cx="-107.13" cy="-63.891" r="5.9328" fill="#fff" stop-color="#000000" style="font-variation-settings:normal"/> <circle cx="-75.744" cy="-63.891" r="5.9328" fill="#fff" stop-color="#000000" style="font-variation-settings:normal"/> </g> <rect x="338.13" y="274.93" width="52.575" height="3.5169" rx=".97215" ry=".97212" fill="#407cff" opacity=".999" stop-color="#000000" style="font-variation-settings:normal"/> <rect x="338.13" y="281.7" width="33.456" height="3.5169" rx=".97212" ry=".97212" fill="#407cff" opacity=".999" stop-color="#000000" style="font-variation-settings:normal"/> <rect x="338.13" y="288.46" width="39.621" height="3.5169" rx=".97212" ry=".97212" fill="#407cff" opacity=".999" stop-color="#000000" style="font-variation-settings:normal"/> <rect x="249.02" y="239.19" width="21.65" height="32.493" rx="1.7981" ry="1.7981" fill="#c60dff" opacity=".996" stop-color="#000000" style="font-variation-settings:normal"/> <rect x="276.77" y="239.19" width="21.65" height="32.493" rx="1.7981" ry="1.7981" fill="#c60dff" opacity=".996" stop-color="#000000" style="font-variation-settings:normal"/> <rect x="304.52" y="239.19" width="21.65" height="32.493" rx="1.7981" ry="1.7981" fill="#c60dff" opacity=".996" stop-color="#000000" style="font-variation-settings:normal"/> <rect x="249.02" y="274.15" width="21.65" height="2.2758" rx=".62906" ry=".62906" fill="#407cff" opacity=".999" stop-color="#000000" style="font-variation-settings:normal"/> <rect x="261.31" y="278.89" width="9.3609" height="2.2758" rx=".62906" ry=".62906" fill="#407cff" opacity=".999" stop-color="#000000" style="font-variation-settings:normal"/> <rect x="276.77" y="274.15" width="21.65" height="2.2758" rx=".62906" ry=".62906" fill="#407cff" opacity=".999" stop-color="#000000" style="font-variation-settings:normal"/> <rect x="289.06" y="278.89" width="9.3609" height="2.2758" rx=".62906" ry=".62906" fill="#407cff" opacity=".999" stop-color="#000000" style="font-variation-settings:normal"/> <rect x="304.52" y="274.15" width="21.65" height="2.2758" rx=".62906" ry=".62906" fill="#407cff" opacity=".999" stop-color="#000000" style="font-variation-settings:normal"/> <rect x="316.81" y="278.89" width="9.3609" height="2.2758" rx=".62906" ry=".62906" fill="#407cff" opacity=".999" stop-color="#000000" style="font-variation-settings:normal"/> <rect x="249.02" y="288.2" width="77.154" height="13.315" rx="1.7566" ry="1.7566" fill="#ffba19" opacity=".996" stop-color="#000000" style="font-variation-settings:normal"/> <path d="m351.15 263.83h11.503" fill="none" stop-color="#000000" stroke="#fefeff" stroke-linecap="round" stroke-width="2.0471" style="font-variation-settings:normal"/> <path d="m355.02 258.46h5.9151" fill="none" stop-color="#000000" stroke="#fefeff" stroke-linecap="round" stroke-width="2.0471" style="font-variation-settings:normal"/> <path d="m346.48 254.27h2.8739" fill="none" stop-color="#000000" stroke="#fefeff" stroke-linecap="round" stroke-width="2.0471" style="font-variation-settings:normal"/> <path d="m349.52 258.46h2.0354" fill="none" stop-color="#000000" stroke="#fefeff" stroke-linecap="round" stroke-width="2.0471" style="font-variation-settings:normal"/> <path d="m345.71 263.83h1.7474" fill="none" stop-color="#000000" stroke="#fefeff" stroke-linecap="round" stroke-width="2.0471" style="font-variation-settings:normal"/> <path d="m352.76 254.27h6.1126" fill="none" stop-color="#000000" stroke="#fefeff" stroke-linecap="round" stroke-width="2.0471" style="font-variation-settings:normal"/> <path d="m342.14 254.27h0.67511" fill="none" stop-color="#000000" stroke="#fefeff" stroke-linecap="round" stroke-width="2.0471" style="font-variation-settings:normal"/> </g> <g transform="matrix(.49493 -.34549 .34549 .49493 306.57 505.83)"> <path d="m343.3-172.34c-1.7211 4.1373-15.107 35.144-13.257 39.184 1.3741 3.0009 26.144-11.83 26.087-2.9895l-0.26458 41.248c-0.0115 1.7866 1.4385 3.2246 3.2251 3.2246h6.5743c0.44665 0 0.87226-0.0899 1.2592-0.2526 0.38699-0.16274 0.73537-0.39832 1.0276-0.68974 0.29219-0.29141 0.52819-0.63866 0.69043-1.0247s0.25073-0.81091 0.24789-1.2576l-0.0662-10.398-0.1983-31.193c-0.014-2.2068 1.5311-3.02 3.8767-3.0467s5.4918 0.73314 8.6798 1.6723c3.188 0.93913 6.418 2.0576 8.9313 2.7482 2.5133 0.69061 4.3098 0.95338 4.6311 0.18113 0.43027-1.0343-0.14379-3.7004-1.2758-7.1808s-2.822-7.7752-4.6235-12.067l-5.293-12.049c-1.5783-3.4682-2.8219-6.1159-3.2843-7.1257l-2.0563-4.4908c-0.46239-1.0098 0.396 0.79678-1.1966-2.66l-2.0506-4.6141c-2.0411-4.1-7.7063-15.243-9.514-18.183-1.8078-2.9396-3.3284-4.8481-4.2211-4.8236-3.5707 0.0981-16.208 31.649-17.929 35.786z" fill="#fff" opacity=".996" stop-color="#000000" style="font-variation-settings:normal"/> <path d="m361.23-208.13c-3.5706 0.0981-16.208 31.649-17.929 35.786m0 0c-1.7211 4.1373-15.107 35.144-13.257 39.184m0 0c1.3741 3.0009 26.144-11.83 26.087-2.9895m0 0-0.26458 41.248m0 0c-0.0115 1.7866 1.4385 3.2246 3.2251 3.2246m0 0h6.5743m0 0c0.44665 0 0.87226-0.0899 1.2592-0.2526m0 0c0.38699-0.16274 0.73537-0.39832 1.0276-0.68974m0 0c0.29219-0.29141 0.52819-0.63866 0.69043-1.0247m0 0c0.16224-0.38605 0.25073-0.81091 0.24789-1.2576m0 0-0.0662-10.398m0 0-0.0661-10.398m0 0-0.0661-10.398m0 0-0.0661-10.398m0 0c-0.014-2.2068 1.5311-3.02 3.8767-3.0467m0 0c2.3456-0.0267 5.4918 0.73314 8.6798 1.6723m0 0c3.188 0.93913 6.418 2.0576 8.9313 2.7482m0 0c2.5133 0.69061 4.3098 0.95338 4.6311 0.18113m0 0c0.43027-1.0343-0.14379-3.7004-1.2758-7.1808m0 0c-1.132-3.4804-2.822-7.7752-4.6235-12.067m-5.293-12.049c-1.5783-3.4682-2.8219-6.1159-3.2843-7.1257m-5.3036-11.765c-2.0411-4.1-7.7063-15.243-9.514-18.183m0 0c-1.8078-2.9396-3.3284-4.8481-4.2211-4.8236" fill="none" opacity=".996" stop-color="#000000" stroke="#000" stroke-linecap="round" stroke-width="5.0411" style="font-variation-settings:normal"/> </g> <g transform="matrix(1.2372 0 0 1.2372 -22.549 -96.167)" opacity=".9955"> <rect x="271.48" y="148.06" width="105.26" height="56.012" rx="5.1375" ry="5.1375" fill="#b6fe33" opacity="1" stop-color="#000000" style="font-variation-settings:normal"/> <path d="m276.62 148.06h11.874m0 0h11.874m0 0h11.874m0 0h11.874m0 0h11.874m0 0h11.874m0 0h11.874m0 0h11.874m0 0c0.35577 0 0.70288 0.0358 1.0379 0.10401m0 0c0.33504 0.0682 0.65803 0.16884 0.96556 0.29848m0 0c0.30752 0.12965 0.5996 0.28831 0.87283 0.4726m0 0c0.27324 0.18429 0.52762 0.3942 0.75978 0.62635m0 0c0.23215 0.23216 0.44206 0.48654 0.62635 0.75978m0 0c0.18429 0.27323 0.34295 0.56531 0.4726 0.87283m0 0c0.12964 0.30753 0.23026 0.63052 0.29848 0.96556m0 0c0.0682 0.33504 0.10401 0.68215 0.10401 1.0379m0 0v5.7172m0 0v11.789m0 8.1629v15.094m0 4.9745c0 0.35578-0.0358 0.70288-0.10401 1.0379m0 0c-0.0682 0.33505-0.16884 0.65803-0.29848 0.96556m0 0c-0.12965 0.30753-0.28831 0.59961-0.4726 0.87284m0 0c-0.18429 0.27323-0.3942 0.52762-0.62635 0.75977m0 0c-0.23216 0.23215-0.48654 0.44207-0.75978 0.62636m0 0c-0.27323 0.18428-0.56531 0.34295-0.87283 0.47259m0 0c-0.30753 0.12964-0.63052 0.23026-0.96556 0.29848m0 0c-0.33504 0.0682-0.68215 0.10401-1.0379 0.10401m0 0h-11.874m0 0h-11.874m0 0h-11.874m0 0h-22.169m-7.521 0h-5.9305m-6.7212 0h-17.026m0 0c-0.35577 0-0.70288-0.0358-1.0379-0.10401m0 0c-0.33504-0.0682-0.65803-0.16884-0.96556-0.29848m0 0c-0.30752-0.12964-0.5996-0.28831-0.87283-0.47259m0 0c-0.27324-0.18429-0.52762-0.39421-0.75978-0.62636m0 0c-0.23215-0.23215-0.44206-0.48654-0.62635-0.75977m0 0c-0.18429-0.27323-0.34295-0.56531-0.4726-0.87284m0 0c-0.12964-0.30753-0.23026-0.63051-0.29848-0.96556m0 0c-0.0682-0.33504-0.10401-0.68214-0.10401-1.0379m0 0v-5.7172m0 0v-5.7172m0 0v-5.7172m0 0v-5.7172m0 0v-5.7172m0 0v-5.7172m0 0v-5.7172m0 0v-5.7172m0 0c0-0.35577 0.0358-0.70288 0.10401-1.0379m0 0c0.0682-0.33504 0.16884-0.65803 0.29848-0.96556m0 0c0.12965-0.30752 0.28831-0.5996 0.4726-0.87283m0 0c0.18429-0.27324 0.3942-0.52762 0.62635-0.75978m0 0c0.23216-0.23215 0.48654-0.44206 0.75978-0.62635m0 0c0.27323-0.18429 0.56531-0.34295 0.87283-0.4726m0 0c0.30753-0.12964 0.63052-0.23026 0.96556-0.29848m0 0c0.33504-0.0682 0.68215-0.10401 1.0379-0.10401" fill="none" opacity="1" stop-color="#000000" stroke="#000" stroke-linecap="round" stroke-width="2.4594" style="font-variation-settings:normal"/> <rect x="271.39" y="134.17" width="21.183" height="32.423" rx="10.591" ry="10.591" fill="#fa9b14" opacity=".998" stop-color="#000000" style="font-variation-settings:normal"/> <rect x="334.71" y="134.17" width="21.183" height="32.423" rx="10.591" ry="10.591" fill="#faf03e" opacity=".998" stop-color="#000000" style="font-variation-settings:normal"/> <path d="m355.9 156c0 1.4669-0.29522 2.8624-0.82976 4.1303m-5.6314 5.6314c-1.268 0.53454-2.6634 0.82978-4.1303 0.82978m0 0c-1.4669 0-2.8623-0.29524-4.1303-0.82978m0 0c-1.268-0.53454-2.4086-1.3084-3.3658-2.2656m0 0c-0.9572-0.9572-1.731-2.0978-2.2656-3.3658m0 0c-0.53454-1.268-0.82977-2.6634-0.82977-4.1303m0 0v-11.24c0-5.8677 4.7238-10.591 10.591-10.591s10.591 4.7238 10.591 10.591v11.24" fill="#faf03e" opacity=".998" stop-color="#000000" stroke="#000" stroke-linecap="round" stroke-width="2.4594" style="font-variation-settings:normal"/> <path d="m336.1 113.99h4.6059m6.4451 0c1.7868 0 2.8713 1.4739 3.2253 3.2253l5.5232 27.328c0.42844 2.1198-1.741 3.9037-3.9037 3.9037h-13.375c-2.1627 0-3.7583-1.746-3.9037-3.9037l-1.8419-27.328c-0.12016-1.7828 1.4385-3.2253 3.2253-3.2253" fill="#faf03e" opacity=".998" stop-color="#000000" stroke="#000" stroke-linecap="round" stroke-width="2.4594" style="font-variation-settings:normal"/> <rect x="292.82" y="134.17" width="21.183" height="32.423" rx="10.591" ry="10.591" fill="#faf03e" opacity=".998" stop-color="#000000" stroke="#000" stroke-linecap="round" stroke-width="2.4594" style="font-variation-settings:normal"/> <path d="m292.57 156c0 1.4669-0.29523 2.8624-0.82977 4.1303m0 0c-0.53454 1.268-1.3084 2.4086-2.2656 3.3658m0 0c-0.95721 0.95721-2.0978 1.731-3.3658 2.2656m0 0c-1.268 0.53454-2.6634 0.82978-4.1303 0.82978m0 0c-1.4669 0-2.8623-0.29524-4.1303-0.82978m-5.6313-5.6314c-0.53454-1.268-0.82978-2.6634-0.82978-4.1303m0 0v-11.24c0-5.8677 4.7238-10.591 10.591-10.591s10.591 4.7238 10.591 10.591v11.24" fill="#fa9b14" opacity=".998" stop-color="#000000" stroke="#000" stroke-linecap="round" stroke-width="2.4594" style="font-variation-settings:normal"/> <rect x="313.77" y="134.17" width="21.183" height="32.423" rx="10.591" ry="10.591" fill="#fa9b14" opacity=".998" stop-color="#000000" stroke="#000" stroke-linecap="round" stroke-width="2.4594" style="font-variation-settings:normal"/> <rect x="355.66" y="134.17" width="21.183" height="32.423" rx="10.591" ry="10.591" fill="#fa9b14" opacity=".998" stop-color="#000000" stroke="#000" stroke-linecap="round" stroke-width="2.4594" style="font-variation-settings:normal"/> <path d="m301.49 113.99h11.051c1.7868 0 3.3399 1.4422 3.2253 3.2253l-1.7565 27.328c-0.13872 2.1582-1.7411 3.9037-3.9037 3.9037h-13.375c-2.1627 0-4.3258-1.7826-3.9037-3.9037l5.4378-27.328c0.34871-1.7525 1.4385-3.2253 3.2253-3.2253" fill="#faf03e" opacity=".998" stop-color="#000000" stroke="#000" stroke-linecap="round" stroke-width="2.4594" style="font-variation-settings:normal"/> <path d="m271.39 144.54 2.2908-6.832m0 0 3.4361-10.248 3.4362-10.248m0 0c0.56804-1.6941 1.4385-3.2253 3.2253-3.2253h11.051c1.7868 0 3.5767 1.4734 3.2253 3.2253l-5.4817 27.328c-0.42533 2.1204-1.7411 3.9037-3.9037 3.9037h-13.375c-2.1627 0-4.5912-1.8532-3.9037-3.9037" fill="#fa9b14" opacity=".998" stop-color="#000000" stroke="#000" stroke-linecap="round" stroke-width="2.4594" style="font-variation-settings:normal"/> <path d="m318.79 113.99h11.051c1.7868 0 3.0917 1.4435 3.2253 3.2253l2.0824 27.773c0.16466 2.1962-1.94 3.4591-4.1027 3.4591h-13.375c-2.1627 0-4.0457-1.7457-3.9037-3.9037l1.798-27.328c0.11731-1.783 1.4385-3.2253 3.2253-3.2253z" fill="#fa9b14" opacity=".998" stop-color="#000000" stroke="#000" stroke-linecap="round" stroke-width="2.4594" style="font-variation-settings:normal"/> <path d="m369.83 123.63 7.0094 20.905c0.68752 2.0505-1.7411 3.9037-3.9037 3.9037h-13.375c-2.1627 0-3.4784-1.7833-3.9037-3.9037l-5.4817-27.328c-0.35142-1.7519 1.4385-3.2253 3.2253-3.2253h11.051c1.7868 0 2.6572 1.5312 3.2253 3.2253" fill="#fa9b14" opacity=".998" stop-color="#000000" stroke="#000" stroke-linecap="round" stroke-width="2.4594" style="font-variation-settings:normal"/> </g> <g transform="matrix(.65218 0 0 .65218 400.33 83.004)"> <rect x="96.1" y="157.4" width="176.39" height="112.2" rx="13.403" ry="13.403" fill="#ffeb27"/> <path d="m96.1 174.77v31.61h176.39v-31.61z" fill="#666"/> <path d="m128.2 157.4h18.698m49.184 0.018h1.9784m-42.298 0h13.04m11.87 0h3.9568m37.06-0.018h37.396m0 0c3.7127 0 7.0635 1.4944 9.4861 3.9171m3.9171 9.4861v85.39c0 7.4254-5.9778 13.403-13.403 13.403h-149.58c-7.4254 0-13.403-5.9778-13.403-13.403v-85.39c0-7.4254 5.9778-13.403 13.403-13.403h18.698" fill="none" stroke="#000" stroke-linecap="round" stroke-width="4.2042"/> <rect x="105.88" y="219.04" width="23.765" height="13.92" rx="3.8389" ry="3.8389" fill="#c60dff"/> <rect x="137.63" y="222.35" width="26.018" height="7.3153" rx="3.6577" ry="3.4939" fill="#c60dff"/> <rect x="169.38" y="222.35" width="12.08" height="7.3153" rx="3.6577" ry="3.6577" fill="#c60dff"/> <circle cx="248.59" cy="247.2" r="12.433" fill="#ffba19" opacity=".995"/> <circle cx="230.49" cy="247.2" r="12.433" fill="#c60dff" opacity=".995"/> </g> <g transform="matrix(.60407 0 0 .60407 305.4 282.3)"> <rect x="109.63" y="149.8" width="150.71" height="165.31" rx="10.422" ry="9.4379" fill="#ffba19" stop-color="#000000" style="font-variation-settings:normal"/> <circle cx="223.92" cy="177.25" r="5.608" fill="#faf03e" stop-color="#000000" stroke="#000" stroke-linecap="round" stroke-width="1.9096" style="font-variation-settings:normal"/> <path d="m120.05 149.8h16.233m0 0h16.233m0 0h32.123m0 0h9.7922m13.139 0h26.331m7.1873 0h8.8245m0 0c0.72175 0 1.4259 0.0658 2.1056 0.19107m0 0c0.67971 0.12532 1.3349 0.31017 1.9588 0.54833m0 0c0.62388 0.23816 1.2164 0.52963 1.7707 0.86818m0 0c0.5543 0.33854 1.0704 0.72417 1.5414 1.1506m0 0c0.47096 0.42647 0.89682 0.8938 1.2707 1.3957m0 0c0.37387 0.50194 0.69574 1.0385 0.95875 1.6034m0 0c0.263 0.56495 0.46713 1.1583 0.60552 1.7738m0 0c0.13838 0.61549 0.21101 1.2531 0.21101 1.9067m0 0v18.304m0 18.304v8.7114m0 7.7521v38.449m0 0v18.304m0 0v18.304m0 0v18.304m0 0c0 0.65358-0.0727 1.2912-0.21101 1.9067m0 0c-0.13839 0.61549-0.34252 1.2088-0.60552 1.7738m0 0c-0.26301 0.56494-0.58488 1.1015-0.95875 1.6034m0 0c-0.37386 0.50194-0.79972 0.96926-1.2707 1.3957m0 0c-0.47097 0.42648-0.98705 0.8121-1.5414 1.1506m0 0c-0.55431 0.33855-1.1468 0.63001-1.7707 0.86818m0 0c-0.62388 0.23815-1.2791 0.423-1.9588 0.54832m0 0c-0.6797 0.12531-1.3839 0.19108-2.1056 0.19108m0 0h-16.233m0 0h-16.233m0 0h-16.233m0 0h-16.233m0 0h-16.233m0 0h-16.233m0 0h-16.233m0 0h-16.233m0 0c-0.72175 0-1.4259-0.0658-2.1056-0.19108m0 0c-0.67971-0.12532-1.3349-0.31017-1.9588-0.54832m0 0c-0.62388-0.23817-1.2164-0.52963-1.7707-0.86818m0 0c-0.5543-0.33855-1.0704-0.72417-1.5414-1.1506m0 0c-0.47096-0.42648-0.89682-0.8938-1.2707-1.3957m0 0c-0.37387-0.50194-0.69574-1.0385-0.95875-1.6034m0 0c-0.263-0.56495-0.46713-1.1583-0.60552-1.7738m0 0c-0.13838-0.6155-0.21101-1.2531-0.21101-1.9067m0 0v-18.304m0 0v-18.304m0 0v-18.304m0 0v-18.304m0 0v-18.304m0 0v-18.304m0 0v-18.304m0 0v-18.304m0 0c0-0.65357 0.0727-1.2912 0.21101-1.9067m0 0c0.13839-0.6155 0.34252-1.2088 0.60552-1.7738m0 0c0.26301-0.56495 0.58488-1.1015 0.95875-1.6034m0 0c0.37386-0.50194 0.79972-0.96927 1.2707-1.3957m0 0c0.47097-0.42648 0.98705-0.81211 1.5414-1.1506m0 0c0.55431-0.33855 1.1468-0.63002 1.7707-0.86818m0 0c0.62388-0.23816 1.2791-0.42301 1.9588-0.54833m0 0c0.6797-0.12531 1.3839-0.19107 2.1056-0.19107" fill="none" stop-color="#000000" stroke="#000" stroke-linecap="round" stroke-width="5.037" style="font-variation-settings:normal"/> <circle cx="146.05" cy="177.25" r="5.608" fill="#faf03e" stop-color="#000000" stroke="#000" stroke-linecap="round" stroke-width="1.9096" style="font-variation-settings:normal"/> <path d="m223.76 177.26v-10.012m0 0v-10.012m0 0v-10.012m0 0v-10.012m0 0c0-4.8648-0.86516-9.4925-2.4316-13.698m-6.639-11.162c-2.805-3.1744-6.1473-5.7407-9.863-7.5134m0 0c-3.7157-1.7727-7.8049-2.7518-12.104-2.7518m-11.611 0h-3.8704m0 0c-4.2986 0-8.3878 0.9791-12.104 2.7518m0 0c-3.7157 1.7727-7.058 4.339-9.863 7.5134m0 0c-2.805 3.1744-5.0726 6.9569-6.639 11.162m0 0c-1.5664 4.2051-2.4316 8.8328-2.4316 13.698m0 0v10.012m0 0v10.012m0 0v10.012m0 0v10.012" fill="none" opacity=".998" stop-color="#000000" stroke="#000" stroke-linecap="round" stroke-width="5.037" style="font-variation-settings:normal"/> </g> <g fill="none" stroke="#000" stroke-linecap="round" stroke-width="3.0427"> <path d="m101.51 227.84h85.356"/> <path d="m69.892 235.96h40.229m15.689 0h31.089"/> </g> <g transform="matrix(1 0 0 -1 430.35 404.19)" fill="none" stroke="#000" stroke-linecap="round" stroke-width="3.0427"> <path d="m113.96 227.84h32.848"/> <path d="m131.55 235.96h12.735"/> </g> <path d="m437.49 491.28h39.398m-66.695-6.8792h45.35" fill="none" stroke="#000" stroke-linecap="round" stroke-width="3.0427" style="mix-blend-mode:normal"/> <path d="m311.25 401.84h5.5438m-55.964 0h45.35" fill="none" stroke="#000" stroke-linecap="round" stroke-width="3.0427" style="mix-blend-mode:normal"/> <path d="m299.71 165.92h-5.5438m55.964 0h-45.35" fill="none" stroke="#000" stroke-linecap="round" stroke-width="3.0427" style="mix-blend-mode:normal"/> </g> </svg>